<?xml version="1.0" encoding="utf-8" ?>
<svg baseProfile="full" height="900px" version="1.1" width="1200px" xmlns="http://www.w3.org/2000/svg" xmlns:ev="http://www.w3.org/2001/xml-events" xmlns:xlink="http://www.w3.org/1999/xlink"><defs /><style type="text/css"><![CDATA[
        .button { fill: white; stroke-width: 2; }
        .button-label { font-family: Arial; font-size: 12px; text-anchor: middle; }
        .command-label { font-family: Arial; font-size: 14px; }
        .topic-label { font-family: Arial; font-size: 10px; font-style: italic; }
        .shift-command { font-family: Arial; font-size: 14px; fill: #9b59b6; }
        .arm-command { stroke: #3498db; fill: #3498db; }
        .state-command { stroke: #e74c3c; fill: #e74c3c; }
        .axis-control { stroke: #2ecc71; fill: #2ecc71; }
        .free-command { stroke: #777; fill: #777; }
        .controller-outline { fill: #f1f1f1; stroke: #333; stroke-width: 3; }
        .title { font-family: Arial; font-size: 24px; text-anchor: middle; fill: #333; }
        .subtitle { font-family: Arial; font-size: 16px; text-anchor: middle; fill: #666; }
    ]]></style><g id="controller"><path class="controller-outline" d="M350,250 C300,250 250,270 220,310 C180,360 170,420 170,450 C170,500 180,550 220,600 C260,650 320,670 350,680 C450,700 650,700 750,680 C780,670 840,650 880,600 C920,550 930,500 930,450 C930,420 920,360 880,310 C850,270 800,250 750,250 C650,240 450,240 350,250 Z" /></g><text class="title" x="600" y="40">Xbox Controller Button Mapping</text><text class="subtitle" x="600" y="70">Generated from joystick_Move.yaml</text><g id="button-B"><circle class="button arm-command" cx="850" cy="430" r="20" /><text class="button-label" x="850" y="435">B</text><line class="arm-command" stroke-dasharray="3,2" x1="850" x2="890" y1="430" y2="450" /><text class="command-label arm-command" text-anchor="start" x="890" y="450">ROTATE_WRIST_CW / STOP_WRIST</text><text class="topic-label arm-command" text-anchor="start" x="890" y="465">arm_commands/</text></g><g id="button-Y"><circle class="button arm-command" cx="800" cy="380" r="20" /><text class="button-label" x="800" y="385">Y</text><line class="arm-command" stroke-dasharray="3,2" x1="800" x2="880" y1="380" y2="320" /><text class="command-label arm-command" text-anchor="start" x="880" y="320">CLOSE_NIPPER / STOP_NIPPER</text><text class="topic-label arm-command" text-anchor="start" x="880" y="335">arm_commands/</text></g><g id="button-X"><circle class="button arm-command" cx="750" cy="430" r="20" /><text class="button-label" x="750" y="435">X</text><line class="arm-command" stroke-dasharray="3,2" x1="750" x2="870" y1="430" y2="390" /><text class="command-label arm-command" text-anchor="start" x="870" y="390">ROTATE_WRIST_CCW / STOP_WRIST</text><text class="topic-label arm-command" text-anchor="start" x="870" y="405">arm_commands/</text></g><g id="button-A"><circle class="button arm-command" cx="800" cy="480" r="20" /><text class="button-label" x="800" y="485">A</text><line class="arm-command" stroke-dasharray="3,2" x1="800" x2="850" y1="480" y2="510" /><text class="command-label arm-command" text-anchor="start" x="850" y="510">OPEN_NIPPER / STOP_NIPPER</text><text class="topic-label arm-command" text-anchor="start" x="850" y="525">arm_commands/</text></g><g id="button-View"><rect class="button state-command" height="30" rx="5" ry="5" width="40" x="430" y="385" /><text class="button-label" x="450" y="405">Back</text><line class="state-command" stroke-dasharray="3,2" x1="450" x2="450" y1="400" y2="350" /><text class="command-label state-command" text-anchor="end" x="450" y="350">DEPTH_REFERENCE_UPDATE</text><text class="topic-label state-command" text-anchor="end" x="450" y="365">state_commands/</text></g><g id="button-Option"><rect class="button state-command" height="30" rx="5" ry="5" width="40" x="630" y="385" /><text class="button-label" x="650" y="405">Opt</text><line class="state-command" stroke-dasharray="3,2" x1="650" x2="660" y1="400" y2="350" /><text class="command-label state-command" text-anchor="start" x="660" y="350">TORQUE / TORQUE_OFF</text><text class="topic-label state-command" text-anchor="start" x="660" y="365">state_commands/</text></g><g id="button-Start"><rect class="button state-command" height="30" rx="5" ry="5" width="40" x="530" y="335" /><text class="button-label" x="550" y="355">Start</text><line class="state-command" stroke-dasharray="3,2" x1="550" x2="550" y1="350" y2="300" /><text class="command-label state-command" text-anchor="end" x="550" y="300">ARM_ROV</text><text class="topic-label state-command" text-anchor="end" x="550" y="315">state_commands/</text></g><g id="button-LC"><rect class="button free-command" height="30" rx="5" ry="5" width="40" x="330" y="435" /><text class="button-label" x="350" y="455">LC</text><line class="free-command" stroke-dasharray="3,2" x1="350" x2="290" y1="450" y2="440" /><text class="command-label free-command" text-anchor="end" x="290" y="440">FREE</text><text class="topic-label free-command" text-anchor="end" x="290" y="455">None</text></g><g id="button-RC"><rect class="button free-command" height="30" rx="5" ry="5" width="40" x="630" y="535" /><text class="button-label" x="650" y="555">RC</text><line class="free-command" stroke-dasharray="3,2" x1="650" x2="660" y1="550" y2="640" /><text class="command-label free-command" text-anchor="start" x="660" y="640">FREE</text><text class="topic-label free-command" text-anchor="start" x="660" y="655">None</text></g><g id="button-LB"><rect class="button axis-control" height="30" rx="5" ry="5" width="50" x="275" y="265" /><text class="button-label" x="300" y="285">LB</text><line class="axis-control" stroke-dasharray="3,2" x1="300" x2="370" y1="280" y2="270" /><text class="command-label axis-control" text-anchor="start" x="370" y="270">ROLL</text><text class="shift-command" text-anchor="start" x="370" y="300">SHIFT: ROLL</text><text class="topic-label axis-control" text-anchor="start" x="370" y="285">axes/</text></g><g id="button-RB"><rect class="button axis-control" height="30" rx="5" ry="5" width="50" x="775" y="265" /><text class="button-label" x="800" y="285">RB</text><line class="axis-control" stroke-dasharray="3,2" x1="800" x2="730" y1="280" y2="270" /><text class="command-label axis-control" text-anchor="end" x="730" y="270">ROLL</text><text class="shift-command" text-anchor="end" x="730" y="300">SHIFT: ROLL</text><text class="topic-label axis-control" text-anchor="end" x="730" y="285">axes/</text></g><g id="button-D-Pad-Up"><line class="state-command" stroke-dasharray="3,2" x1="450" x2="380" y1="530" y2="520" /><text class="command-label state-command" text-anchor="end" x="380" y="520">DEPTH_REFERENCE_OFFSET</text><text class="shift-command" text-anchor="end" x="380" y="550">SHIFT: DEPTH_REFERENCE_OFFSET</text><text class="topic-label state-command" text-anchor="end" x="380" y="535">state_commands/</text></g><g id="button-D-Pad-Down"><line class="state-command" stroke-dasharray="3,2" x1="450" x2="420" y1="570" y2="630" /><text class="command-label state-command" text-anchor="end" x="420" y="630">DEPTH_REFERENCE_OFFSET</text><text class="shift-command" text-anchor="end" x="420" y="660">SHIFT: DEPTH_REFERENCE_OFFSET</text><text class="topic-label state-command" text-anchor="end" x="420" y="645">state_commands/</text></g><g id="button-D-Pad-Left"><line class="free-command" stroke-dasharray="3,2" x1="430" x2="360" y1="550" y2="580" /><text class="command-label free-command" text-anchor="end" x="360" y="580">SHIFT / noSHIFT</text><text class="shift-command" text-anchor="end" x="360" y="610">SHIFT: SHIFT / noSHIFT</text><text class="topic-label free-command" text-anchor="end" x="360" y="595">None</text></g><g id="button-D-Pad-Right"><line class="state-command" stroke-dasharray="3,2" x1="470" x2="480" y1="550" y2="610" /><text class="command-label state-command" text-anchor="start" x="480" y="610">CHANGE_CONTROLLER_STATUS</text><text class="topic-label state-command" text-anchor="start" x="480" y="625">state_commands/</text></g><g id="button-UPLOAD"><rect class="button state-command" height="30" rx="5" ry="5" width="40" x="530" y="385" /><text class="button-label" x="550" y="405">UPLOAD</text><line class="state-command" stroke-dasharray="3,2" x1="550" x2="551" y1="400" y2="460" /><text class="command-label state-command" text-anchor="start" x="551" y="460">ABLE_ANGLE_CTL</text><text class="shift-command" text-anchor="start" x="551" y="490">SHIFT: DISABLE_ANGLE_CTL</text><text class="topic-label state-command" text-anchor="start" x="551" y="475">state_commands/</text></g><g id="thumbsticks"><circle class="button axis-control" cx="350" cy="450" r="25" /><circle class="button axis-control" cx="650" cy="550" r="25" /></g><g id="dpad"><rect class="button state-command" height="20" width="50" x="425" y="540" /><rect class="button state-command" height="50" width="20" x="440" y="525" /></g><g id="axis-LSB-X"><line class="axis-control" stroke-dasharray="3,2" x1="350" x2="310" y1="450" y2="380" /><text class="command-label axis-control" text-anchor="end" x="310" y="380">X: Y, Y: X</text><text class="topic-label axis-control" text-anchor="end" x="310" y="395">Deadzone: 2000</text></g><g id="axis-RSB-X"><line class="axis-control" stroke-dasharray="3,2" x1="650" x2="720" y1="550" y2="570" /><text class="command-label axis-control" text-anchor="start" x="720" y="570">X: YAW, Y: PITCH</text><text class="topic-label axis-control" text-anchor="start" x="720" y="585">Deadzone: 2000</text></g><g id="axis-LT"><line class="axis-control" stroke-dasharray="3,2" x1="300" x2="260" y1="240" y2="220" /><text class="command-label axis-control" text-anchor="end" x="260" y="220">Z</text><text class="topic-label axis-control" text-anchor="end" x="260" y="235">Deadzone: 500</text></g><g id="axis-RT"><line class="axis-control" stroke-dasharray="3,2" x1="800" x2="840" y1="240" y2="220" /><text class="command-label axis-control" text-anchor="start" x="840" y="220">Z</text><text class="topic-label axis-control" text-anchor="start" x="840" y="235">Deadzone: 500</text></g><g id="legend" transform="translate(550, 150)"><rect fill="white" height="180" rx="5" ry="5" stroke="#333" width="220" x="-110" y="-50" /><text class="subtitle" text-anchor="middle" x="0" y="-25">Legend</text><rect class="button arm-command" height="20" width="20" x="-100" y="-10" /><text class="command-label arm-command" text-anchor="start" x="-50" y="5">Arm Commands</text><rect class="button state-command" height="20" width="20" x="-100" y="15" /><text class="command-label state-command" text-anchor="start" x="-50" y="30">State Commands</text><rect class="button axis-control" height="20" width="20" x="-100" y="40" /><text class="command-label axis-control" text-anchor="start" x="-50" y="55">Axis Controls</text><rect class="button free-command" height="20" width="20" x="-100" y="65" /><text class="command-label free-command" text-anchor="start" x="-50" y="80">Free Buttons</text><rect class="button shift-command" height="20" width="20" x="-100" y="90" /><text class="command-label shift-command" text-anchor="start" x="-50" y="105">Shift Commands</text></g></svg>