<svg version="1.1" id="Layer_1" xmlns="http://www.w3.org/2000/svg" xmlns:xlink="http://www.w3.org/1999/xlink" x="0px" y="0px" width="100%" viewBox="0 0 96 96" enable-background="new 0 0 96 96" xml:space="preserve">

<path fill="#FAFFFF" opacity="1.000000" stroke="none" d="
M73.995941,79.000000 
	C79.140343,79.000000 83.785469,79.000000 88.713654,79.000000 
	C88.713654,81.618088 88.713654,84.022705 88.713654,86.720108 
	C62.395927,86.720108 35.984524,86.720108 9.286097,86.720108 
	C9.286097,84.381195 9.286097,81.974228 9.286097,79.000000 
	C30.625988,79.000000 52.061325,79.000000 73.995941,79.000000 
z" data-index="1" style="opacity: 1;"></path>
<path fill="#F7FDFF" opacity="1.000000" stroke="none" d="
M41.803467,31.891380 
	C44.125874,28.695265 46.264069,25.825022 48.966625,22.197201 
	C52.526745,27.033484 55.816696,31.502748 59.617195,36.665573 
	C57.156326,36.864212 55.312626,37.013039 53.234673,37.180771 
	C53.234673,44.892784 53.234673,52.648888 53.234673,60.847710 
	C55.034500,60.940361 56.900833,61.036438 59.615608,61.176193 
	C55.981709,66.226189 52.734192,70.739227 49.014374,75.908615 
	C45.325039,70.811905 42.065346,66.308731 38.354546,61.182365 
	C40.924530,61.066006 42.675610,60.986725 44.714714,60.894398 
	C44.714714,53.031601 44.714714,45.152218 44.714714,37.007832 
	C42.836380,37.007832 41.061497,37.007832 38.506001,37.007832 
	C39.775299,35.054680 40.697281,33.635967 41.803467,31.891380 
z" data-index="2" style="opacity: 1;"></path>
<path fill="#FAFFFF" opacity="1.000000" stroke="none" d="
M46.008640,11.000000 
	C52.483868,11.000000 58.460327,11.000000 64.717010,11.000000 
	C64.717010,13.624366 64.717010,16.030899 64.717010,18.722664 
	C54.392345,18.722664 43.979862,18.722664 33.282585,18.722664 
	C33.282585,16.374865 33.282585,13.968357 33.282585,11.000000 
	C37.292042,11.000000 41.400955,11.000000 46.008640,11.000000 
z" data-index="3" style="opacity: 1;"></path>
</svg>