<svg version="1.1" id="Layer_1" xmlns="http://www.w3.org/2000/svg" xmlns:xlink="http://www.w3.org/1999/xlink" x="0px" y="0px" width="100%" viewBox="0 0 480 480" enable-background="new 0 0 480 480" xml:space="preserve">

<path fill="#FFFFFF" opacity="1.000000" stroke="none" d="
M247.187485,292.000000 
	C235.791946,291.666656 224.876526,291.353882 213.962601,290.995514 
	C194.131973,290.344391 174.301834,289.677704 154.472305,288.993958 
	C145.722351,288.692200 136.976624,288.239685 128.224808,288.028351 
	C120.700180,287.846680 118.155174,285.758484 118.052261,278.237976 
	C117.867653,264.746124 117.870117,251.248352 118.036621,237.756027 
	C118.204247,224.173798 118.986313,210.591843 118.844170,197.016617 
	C118.786552,191.514191 121.390694,188.967468 125.856979,188.139740 
	C139.857605,185.545059 153.964676,183.525787 167.968323,180.946106 
	C180.698532,178.600998 193.375092,176.460922 206.427948,176.914398 
	C218.073349,177.318985 229.743927,176.999451 241.999161,176.999451 
	C241.645996,170.222900 243.151886,163.567398 237.496399,157.737518 
	C233.471176,153.588181 234.136765,143.305511 237.589508,138.904510 
	C240.404663,135.316162 250.016861,133.473190 255.037979,135.559036 
	C260.949768,138.014877 264.650452,148.596176 260.986267,154.573929 
	C257.092529,160.926178 253.579285,167.037659 255.934067,174.829819 
	C256.091492,175.350754 255.584793,176.072372 255.292694,177.000000 
	C258.162140,177.000000 260.944885,177.000000 263.727631,177.000000 
	C294.714691,177.000000 325.701782,176.994858 356.688843,177.004272 
	C363.009583,177.006195 364.991028,178.919525 364.993622,185.076355 
	C365.007263,217.729401 364.962036,250.382553 365.047821,283.035370 
	C365.058594,287.139984 363.786469,289.066833 359.364929,289.081787 
	C352.623840,289.104584 345.887787,289.844604 339.143921,289.967651 
	C316.235809,290.385681 293.324219,290.612305 270.416138,291.030731 
	C262.830170,291.169281 255.250717,291.666687 247.187485,292.000000 
M334.483398,209.000000 
	C316.407196,209.000000 298.330994,209.000000 280.000000,209.000000 
	C280.000000,217.790207 280.180817,226.094009 279.920898,234.384003 
	C279.797668,238.314148 281.389984,239.201279 284.929840,239.050613 
	C296.000305,238.579498 307.079407,238.121170 318.157043,238.071609 
	C326.067596,238.036209 333.978912,238.810837 341.894440,238.935638 
	C345.540100,238.993134 349.209106,238.317307 348.987946,233.268845 
	C348.701050,226.721634 348.253906,220.180649 348.031921,213.631699 
	C347.915588,210.199722 346.655090,208.530426 342.962067,208.947113 
	C340.495483,209.225418 337.972107,209.000000 334.483398,209.000000 
z" data-index="1" style="visibility: visible; opacity: 1;"></path>
<path fill="#FFFFFF" opacity="1.000000" stroke="none" d="
M398.077698,135.000000 
	C395.973083,135.000000 394.308105,135.000000 391.927307,135.000000 
	C410.012054,159.012482 420.333038,185.362854 420.062561,215.687943 
	C416.107758,215.687943 412.368042,215.687943 408.234161,215.687943 
	C408.038025,202.524261 405.698669,189.523300 400.951965,177.075211 
	C396.301392,164.879288 390.369263,153.332870 381.301056,142.655853 
	C381.301056,147.180817 381.533875,151.022751 381.218109,154.819077 
	C381.012146,157.294922 380.531921,160.074707 379.165588,162.003723 
	C378.356689,163.145828 374.771942,163.847656 373.866302,163.073502 
	C372.056702,161.526566 370.261871,158.867798 370.168488,156.597900 
	C369.771729,146.954941 370.127838,137.283813 369.942932,127.628059 
	C369.857971,123.189972 371.870972,121.872940 375.969513,121.952019 
	C384.293396,122.112595 392.623535,122.075325 400.949097,121.967522 
	C404.978546,121.915344 407.721161,123.212677 407.981750,127.607018 
	C408.264526,132.374969 405.973480,134.744827 401.015106,134.994064 
	C400.184540,135.035828 399.350037,134.999985 398.077698,135.000000 
z" data-index="2" style="visibility: visible;"></path>
<path fill="#FFFFFF" opacity="1.000000" stroke="none" d="
M114.000000,343.982422 
	C113.999977,347.642090 113.928802,350.807220 114.018806,353.967743 
	C114.120232,357.529266 112.471191,359.054199 108.937859,359.024445 
	C100.115105,358.950134 91.291031,358.959564 82.468040,359.018402 
	C78.526848,359.044647 76.207207,357.368744 76.014847,353.314026 
	C75.814651,349.093994 77.731110,346.392090 82.064491,346.048950 
	C85.176567,345.802551 88.323853,346.001007 92.101624,346.001007 
	C73.929680,321.918671 63.665432,295.555115 63.941299,265.255615 
	C68.005905,265.255615 71.743950,265.255615 75.737740,265.255615 
	C76.393234,292.378479 85.480270,316.438934 103.235970,337.554108 
	C102.910156,333.615295 102.229927,329.661896 102.391434,325.743195 
	C102.488327,323.391968 103.410240,320.681427 104.896591,318.922760 
	C105.845329,317.800232 109.185326,317.211426 110.242218,318.002075 
	C112.005554,319.321198 113.682106,321.874725 113.834450,324.019440 
	C114.293335,330.479584 113.999992,336.993134 114.000000,343.982422 
z" data-index="3" style="visibility: visible;"></path>
<path fill="#FFFFFF" opacity="1.000000" stroke="none" d="
M74.408203,231.164093 
	C76.849319,232.433304 80.346664,233.301468 80.595200,234.733475 
	C81.283173,238.697586 81.239906,243.069443 80.174988,246.917389 
	C79.754761,248.435776 75.885063,249.769653 73.548943,249.833755 
	C68.003120,249.985916 62.387127,249.640396 56.907478,248.795593 
	C55.408695,248.564514 53.294178,245.934494 53.159779,244.268433 
	C52.177292,232.089020 53.327541,230.998901 65.491234,231.000946 
	C68.321465,231.001419 71.151703,231.013565 74.408203,231.164093 
z" data-index="4" style="visibility: visible;"></path>
<path fill="#FFFFFF" opacity="1.000000" stroke="none" d="
M413.238464,250.000000 
	C403.988556,249.441193 399.400146,242.414856 403.389801,234.644272 
	C404.396454,232.683655 408.194550,231.313492 410.785065,231.184662 
	C416.145721,230.918076 421.606506,231.354309 426.916473,232.194427 
	C428.467804,232.439896 430.680298,234.927811 430.835236,236.554977 
	C432.001984,248.806778 430.742676,249.999939 418.198151,250.000015 
	C416.700348,250.000031 415.202545,250.000000 413.238464,250.000000 
z" data-index="5" style="visibility: visible;"></path>
<path fill="#FFFFFF" opacity="1.000000" stroke="none" d="
M22.356644,232.281433 
	C29.830690,232.033752 36.937786,231.858810 44.018715,232.210587 
	C45.075451,232.263077 46.505096,234.669739 46.877720,236.202377 
	C47.372997,238.239502 46.667000,240.551834 47.067585,242.632233 
	C47.970959,247.323868 45.286945,249.510300 41.500374,249.659195 
	C35.326038,249.901993 29.095322,249.446045 22.941139,248.790100 
	C21.830812,248.671753 20.329023,246.259857 20.132465,244.759537 
	C19.704973,241.496475 19.877363,238.130127 20.094574,234.825058 
	C20.147446,234.020523 21.322262,233.289734 22.356644,232.281433 
z" data-index="6" style="visibility: visible;"></path>
<path fill="#FFFFFF" opacity="1.000000" stroke="none" d="
M95.323097,249.999969 
	C87.000023,248.671021 87.000023,248.671021 87.000000,241.064529 
	C86.999977,231.902451 87.912292,230.889374 97.215004,231.048660 
	C101.925140,231.129288 106.662491,231.495087 111.305054,232.243561 
	C112.376770,232.416321 113.552063,234.580902 113.890587,236.015167 
	C114.335693,237.900970 114.000084,239.971100 113.999985,241.961960 
	C113.999687,248.118713 112.500206,249.734665 106.236168,249.975769 
	C102.757294,250.109680 99.269043,249.999939 95.323097,249.999969 
z" data-index="7" style="visibility: visible;"></path>
<path fill="#FFFFFF" opacity="1.000000" stroke="none" d="
M373.175354,232.017807 
	C380.544983,232.038269 387.477844,231.930328 394.386078,232.292587 
	C395.320770,232.341614 396.592438,234.655273 396.890228,236.090057 
	C397.319550,238.158615 396.687927,240.438751 397.063995,242.528748 
	C397.883667,247.084259 395.515900,249.488739 391.599640,249.634262 
	C385.424683,249.863708 379.197479,249.437180 373.043243,248.798462 
	C371.905548,248.680389 370.370758,246.346130 370.135468,244.858246 
	C369.674591,241.943588 369.717773,238.865540 370.123383,235.934128 
	C370.316040,234.541580 371.820618,233.330536 373.175354,232.017807 
z" data-index="8" style="visibility: visible;"></path>
<path fill="#FFFFFF" opacity="1.000000" stroke="none" d="
M453.814240,250.000000 
	C452.016418,250.000000 450.689453,250.000015 449.362488,250.000015 
	C437.009308,250.000000 434.361816,246.762497 437.111603,234.645020 
	C437.347809,233.604187 438.997742,232.172668 440.030487,232.139099 
	C446.952301,231.914093 453.889679,231.871674 460.811157,232.099503 
	C463.112244,232.175262 464.462372,233.805450 464.035950,236.458496 
	C463.828033,237.752045 464.000000,239.106644 464.000000,240.433609 
	C464.000000,248.891876 462.982971,249.893356 453.814240,250.000000 
z" data-index="9" style="visibility: visible;"></path>

<path fill="#000000" opacity="1.000000" stroke="none" d="
M334.978760,209.000000 
	C337.972107,209.000000 340.495483,209.225418 342.962067,208.947113 
	C346.655090,208.530426 347.915588,210.199722 348.031921,213.631699 
	C348.253906,220.180649 348.701050,226.721634 348.987946,233.268845 
	C349.209106,238.317307 345.540100,238.993134 341.894440,238.935638 
	C333.978912,238.810837 326.067596,238.036209 318.157043,238.071609 
	C307.079407,238.121170 296.000305,238.579498 284.929840,239.050613 
	C281.389984,239.201279 279.797668,238.314148 279.920898,234.384003 
	C280.180817,226.094009 280.000000,217.790207 280.000000,209.000000 
	C298.330994,209.000000 316.407196,209.000000 334.978760,209.000000 
z" data-index="11" style="visibility: hidden; opacity: 1;"></path>
</svg>