<svg version="1.1" id="Layer_1" xmlns="http://www.w3.org/2000/svg" xmlns:xlink="http://www.w3.org/1999/xlink" x="0px" y="0px" width="100%" viewBox="0 0 480 480" enable-background="new 0 0 480 480" xml:space="preserve">

<path fill="#FFFFFF" opacity="1.000000" stroke="none" d="
M267.000000,290.000000 
	C257.336609,290.000000 248.167877,290.201447 239.010910,289.958832 
	C218.842880,289.424561 198.680511,288.674469 178.516388,287.995636 
	C169.266434,287.684235 160.017731,287.335632 150.768631,286.999298 
	C141.685928,286.669006 132.604401,286.301971 123.520378,286.014069 
	C119.681946,285.892365 117.991440,283.927216 117.993149,280.191711 
	C118.006058,252.035110 117.957542,223.878372 118.049370,195.722076 
	C118.062119,191.811844 120.016281,188.807938 124.134033,187.986206 
	C131.245544,186.567093 138.378448,185.244934 145.525436,184.016235 
	C159.245529,181.657471 172.971954,179.331314 186.717606,177.128021 
	C190.585480,176.508057 194.526917,176.085617 198.438980,176.049927 
	C212.417358,175.922394 226.397598,176.000000 240.999237,176.000000 
	C240.999237,170.918091 241.108948,165.989349 240.903137,161.073822 
	C240.863815,160.134506 239.704117,159.105820 238.850464,158.359634 
	C234.255402,154.343124 232.874237,148.776596 235.004486,142.414108 
	C236.509293,137.919632 241.267593,134.212662 245.804855,134.000046 
	C253.008759,133.662476 257.951721,135.838654 259.759827,142.088104 
	C260.910706,146.065903 261.275391,152.514648 258.968933,154.788925 
	C253.943878,159.743820 253.679611,164.983765 253.988632,170.968811 
	C254.064865,172.445282 254.000000,173.929047 254.000000,176.000000 
	C255.951294,176.000000 257.713867,176.000000 259.476471,176.000000 
	C291.131836,176.000000 322.787170,175.996613 354.442535,176.002655 
	C361.357239,176.003983 363.999481,178.582932 363.999664,185.280197 
	C364.000458,216.935547 364.001526,248.590897 363.998627,280.246246 
	C363.998108,285.945648 362.104309,287.899719 356.482758,287.998322 
	C337.237213,288.335999 317.990417,288.615784 298.746277,289.020355 
	C288.328583,289.239349 277.915283,289.666687 267.000000,290.000000 
M346.069336,207.029510 
	C324.928101,207.019684 303.786407,207.072433 282.646057,206.932098 
	C279.497528,206.911194 278.045898,208.058289 278.022217,211.015274 
	C277.960907,218.672287 277.894043,226.332245 278.045807,233.986740 
	C278.123260,237.893204 280.678955,239.291565 284.304260,238.936783 
	C286.544617,238.717514 288.766174,238.051987 290.998169,238.042252 
	C308.476929,237.965973 325.956757,237.926895 343.434784,238.062469 
	C346.875488,238.089157 348.211273,237.083755 348.064606,233.519638 
	C347.825256,227.703110 348.114288,221.866379 347.951508,216.044556 
	C347.870850,213.159775 347.280304,210.289261 346.069336,207.029510 
z" data-index="1" style="opacity: 1;"></path>
<path fill="#FFFFFF" opacity="1.000000" stroke="none" d="
M408.999756,414.000000 
	C397.668549,414.000000 386.823425,413.666809 376.010773,414.115753 
	C368.663239,414.420807 363.730774,409.190491 363.884125,402.264801 
	C364.245514,385.942566 363.968292,369.606842 364.018524,353.276764 
	C364.034515,348.083069 367.526215,343.528564 372.574860,342.185760 
	C377.210815,340.952698 380.638550,343.276703 383.120239,346.816071 
	C384.241119,348.414642 384.872314,350.674774 384.918304,352.653503 
	C385.111633,360.971680 385.000000,369.296936 385.684113,377.933868 
	C414.385956,350.060638 431.044128,315.697845 437.866089,276.683868 
	C452.752319,191.551483 410.352295,124.048409 385.000000,103.786476 
	C385.000000,111.114456 385.022247,118.028008 384.993927,124.941345 
	C384.963928,132.271271 381.366730,136.008957 374.419495,136.000000 
	C367.579315,135.991180 364.014008,132.181412 364.005585,124.780350 
	C363.987396,108.783409 363.980896,92.786400 364.009735,76.789490 
	C364.020691,70.709885 367.704468,67.003487 373.621216,67.001778 
	C390.951263,66.996773 408.281281,66.991806 425.611328,67.003967 
	C432.684296,67.008934 436.837006,70.958946 437.061218,77.233589 
	C437.272827,83.153999 432.323029,88.431229 425.521912,88.088310 
	C417.897430,87.703888 410.238678,88.000000 401.351044,88.000000 
	C443.041016,130.699295 461.801941,182.482544 462.562714,240.054993 
	C463.329620,298.090027 443.894836,349.638550 402.682434,393.000000 
	C411.001801,393.000000 418.696075,392.994049 426.390381,393.001801 
	C432.771912,393.008270 436.978668,396.939728 437.000031,402.897217 
	C437.022461,409.151306 432.544037,413.927155 426.495544,413.987823 
	C420.830811,414.044678 415.165039,414.000000 408.999756,414.000000 
z" data-index="2" style="opacity: 1;"></path>
<path fill="#FFFFFF" opacity="1.000000" stroke="none" d="
M66.248688,143.339996 
	C57.487663,159.913513 50.459286,176.791046 46.728958,194.813980 
	C44.628975,204.959961 43.279491,215.285400 42.091263,225.587585 
	C41.280636,232.615860 40.876450,239.757080 41.082928,246.824631 
	C41.792923,271.127319 46.408096,294.668243 55.658627,317.243195 
	C63.226742,335.712341 73.285400,352.694641 85.783867,368.229248 
	C88.761955,371.930756 92.052742,375.380676 95.199692,378.946289 
	C95.799797,378.599792 96.399895,378.253326 97.000000,377.906830 
	C97.000000,370.039276 97.532127,362.124359 96.837547,354.318634 
	C96.244301,347.651764 101.664253,342.256989 107.310089,342.023834 
	C113.399345,341.772400 117.994255,347.261444 117.997696,354.625763 
	C118.005173,370.621735 118.009354,386.617676 117.995842,402.613647 
	C117.989594,410.021332 114.035332,413.989410 106.648735,413.995575 
	C89.819656,414.009613 72.990463,414.033142 56.161552,413.979279 
	C51.274429,413.963623 46.000057,410.074371 45.041210,406.041321 
	C43.892487,401.209686 46.033169,396.455566 50.794891,393.859528 
	C51.985661,393.210297 53.559231,393.051300 54.960819,393.036285 
	C62.236927,392.958374 69.514320,393.000000 78.615166,393.000000 
	C39.178905,348.815399 19.326902,298.636963 19.850712,240.392990 
	C20.374107,182.194595 40.056850,131.911606 80.010269,88.000000 
	C71.307877,88.000000 63.622044,88.239670 55.966450,87.863663 
	C53.452560,87.740189 50.726360,86.433983 48.607185,84.943565 
	C44.401310,81.985565 44.023312,77.449783 45.582920,73.032883 
	C47.180252,68.509171 51.038174,66.970444 55.689831,66.982430 
	C72.852051,67.026649 90.014503,66.975487 107.176758,67.011795 
	C114.263786,67.026787 117.972992,70.740974 117.988892,77.823860 
	C118.024422,93.653122 118.029404,109.482582 117.986450,125.311806 
	C117.967575,132.268372 114.257263,135.994659 107.550018,136.000015 
	C100.785156,136.005417 97.070442,132.324631 97.013023,125.411774 
	C96.954269,118.337914 97.000015,111.263176 97.000015,102.636543 
	C83.938499,115.206543 74.642426,128.683456 66.248688,143.339996 
z" data-index="3" style="opacity: 1;"></path>

</svg>